<?xml version="1.0" encoding="UTF-8" standalone="no"?>
<svg width="371px" height="71px" viewBox="0 0 371 71" version="1.1" xmlns="http://www.w3.org/2000/svg" xmlns:xlink="http://www.w3.org/1999/xlink">
    <!-- Generator: Sketch 45.1 (43504) - http://www.bohemiancoding.com/sketch -->
    <title>Group</title>
    <desc>Created with Sketch.</desc>
    <defs></defs>
    <g id="Page-1" stroke="none" stroke-width="1" fill="none" fill-rule="evenodd">
        <g id="Group">
            <path d="M38.1963633,40.0135005 L49.6305497,40.0135005 L48.2708086,0.876665113 L30.965013,0.876665113 L24.9079845,28.8047108 L18.850956,0.876665113 L1.35974109,0.876665113 L0,40.0135005 L11.1869608,40.0135005 L11.3105736,11.2087897 L18.109279,39.3873111 L31.3358514,39.3873111 L38.0727505,11.0835518 L38.1963633,40.0135005 Z M83.6854481,0.876665113 L68.1720384,0.876665113 L54.8836596,40.0135005 L66.8741037,40.0135005 L69.160941,32.6870849 L82.2639006,32.6870849 L84.6743507,40.0135005 L96.7266013,40.0135005 L83.6854481,0.876665113 Z M79.9152569,23.4194823 L71.5095847,23.4194823 L75.8360336,9.70593518 L79.9152569,23.4194823 Z M131.337322,10.9583139 L131.337322,0.876665113 L95.7986346,0.876665113 L95.7986346,10.9583139 L107.480047,10.9583139 L107.480047,40.0135005 L119.65591,40.0135005 L119.65591,10.9583139 L131.337322,10.9583139 Z M138.771502,40.0135005 L150.947365,40.0135005 L150.947365,0.876665113 L138.771502,0.876665113 L138.771502,40.0135005 Z M175.360028,30.9963736 C170.477321,30.9963736 165.285583,29.4309002 161.144553,27.3644753 L159.290361,37.4461241 C162.813326,39.3873111 168.808548,40.9527845 175.174609,40.9527845 C186.36157,40.9527845 192.171808,35.567556 192.171808,27.7401889 C192.171808,20.2259165 185.743505,17.5333023 179.62467,15.779972 C175.793108,14.7154501 172.084288,13.838785 172.084288,12.0228358 C172.084288,10.4573624 173.444464,9.95641092 175.793108,9.95641092 C179.81009,9.95641092 185.063635,11.3966465 189.390084,13.5256903 L191.306083,3.44404151 C187.597698,1.56547342 182.591378,0 175.730866,0 C165.16197,0 159.908425,5.00951493 159.908425,12.6490252 C159.908425,20.6016301 167.078404,23.3568634 172.764159,24.9849557 C177.276027,26.2999534 179.995944,26.8635238 179.995944,28.7420919 C179.995944,30.3701843 178.141317,30.9963736 175.360028,30.9963736 L175.360028,30.9963736 Z M214.421681,30.9963736 C209.538974,30.9963736 204.347236,29.4309002 200.206206,27.3644753 L198.352014,37.4461241 C201.874979,39.3873111 207.870201,40.9527845 214.236262,40.9527845 C225.423223,40.9527845 231.233025,35.567556 231.233025,27.7401889 C231.233025,20.2259165 224.805158,17.5333023 218.686324,15.779972 C214.854326,14.7154501 211.145941,13.838785 211.145941,12.0228358 C211.145941,10.4573624 212.505682,9.95641092 214.854326,9.95641092 C218.871743,9.95641092 224.125288,11.3966465 228.451737,13.5256903 L230.367736,3.44404151 C226.659351,1.56547342 221.653031,0 214.79252,0 C204.223623,0 198.970078,5.00951493 198.970078,12.6490252 C198.970078,20.6016301 206.139622,23.3568634 211.825812,24.9849557 C216.33768,26.2999534 219.057162,26.8635238 219.057162,28.7420919 C219.057162,30.3701843 217.20297,30.9963736 214.421681,30.9963736 L214.421681,30.9963736 Z M270.473569,40.0135005 L270.473569,30.4328032 L252.178871,30.4328032 L252.178871,25.1728125 L266.641571,25.1728125 L266.641571,15.5921152 L252.178871,15.5921152 L252.178871,10.4573624 L270.473569,10.4573624 L270.473569,0.876665113 L240.312039,0.876665113 L240.312039,40.0135005 L270.473569,40.0135005 Z" id="Fill-12" fill="#F6E2C0"></path>
            <path d="M87.6801881,48.9122688 C92.2538627,47.7851279 95.1587641,45.1551326 95.1587641,40.5213313 C95.1587641,34.9482459 92.6247011,30.3770635 79.9543865,30.3770635 L61.2270433,30.3770635 L61.2270433,69.5138989 L80.0161929,69.5138989 C93.6136038,69.5138989 96.3330859,64.0660514 96.3330859,57.9920146 C96.3330859,52.9198807 92.5628947,49.663696 87.6801881,48.9122688 L87.6801881,48.9122688 Z M84.0336097,57.0527305 C84.0336097,59.6201069 82.3648366,60.7472478 78.6564518,60.7472478 L72.9702618,60.7472478 L72.9702618,53.4208322 L78.532839,53.4208322 C81.9939981,53.4208322 84.0336097,54.3601162 84.0336097,57.0527305 L84.0336097,57.0527305 Z M82.9829007,42.712994 C82.9829007,45.2177515 81.375934,46.4701302 78.0383876,46.4701302 L72.9702618,46.4701302 L72.9702618,39.1437146 L78.4092261,39.1437146 C81.375934,39.1437146 82.9829007,40.2708555 82.9829007,42.712994 L82.9829007,42.712994 Z M142.131203,49.7889339 C142.131203,36.1380057 133.107466,29.4377795 121.549667,29.4377795 C109.991868,29.4377795 100.782712,37.2651466 100.782712,50.0394096 C100.782712,63.6903378 109.806449,70.453183 121.364248,70.453183 C132.922047,70.453183 142.131203,62.5631969 142.131203,49.7889339 L142.131203,49.7889339 Z M129.893533,50.0394096 C129.893533,56.3013033 127.112244,60.7472478 121.549667,60.7472478 C115.925284,60.7472478 113.020382,56.2386843 113.020382,49.7889339 C113.020382,43.5270402 115.739864,39.1437146 121.364248,39.1437146 C126.988632,39.1437146 129.893533,43.5896591 129.893533,50.0394096 L129.893533,50.0394096 Z M177.299052,52.606786 L163.578028,30.3770635 L150.475069,30.3770635 L150.475069,69.5138989 L161.785642,69.5138989 L161.785642,47.3467953 L175.692085,69.8896125 L188.609625,69.8896125 L188.609625,30.3770635 L177.299052,30.3770635 L177.299052,52.606786 Z M226.310667,52.606786 L212.589643,30.3770635 L199.486684,30.3770635 L199.486684,69.5138989 L210.797257,69.5138989 L210.797257,47.3467953 L224.7037,69.8896125 L237.621241,69.8896125 L237.621241,30.3770635 L226.310667,30.3770635 L226.310667,52.606786 Z M271.953833,30.3770635 L256.440423,30.3770635 L243.152044,69.5138989 L255.142488,69.5138989 L257.429325,62.1874833 L270.532285,62.1874833 L272.942735,69.5138989 L284.994986,69.5138989 L271.953833,30.3770635 Z M268.183641,52.9198807 L259.777969,52.9198807 L264.104418,39.2063336 L268.183641,52.9198807 Z M302.701653,57.9293956 L306.101005,57.616301 L313.023324,69.5138989 L326.497122,69.5138989 L316.917128,54.4853541 C322.04706,52.4189292 324.45751,48.1608415 324.45751,43.2139455 C324.45751,35.3865785 318.77132,30.3770635 308.017004,30.3770635 L290.525789,30.3770635 L290.525789,69.5138989 L302.701653,69.5138989 L302.701653,57.9293956 Z M302.454427,49.1627445 L302.454427,39.769904 L305.791973,39.769904 C310.180229,39.769904 311.849002,41.2101396 311.849002,44.0906106 C311.849002,47.2841764 310.365648,48.724412 306.657263,49.1001256 L302.454427,49.1627445 Z M370.496759,49.663696 C370.496759,38.0165738 362.770957,30.3770635 348.740901,30.3770635 L332.73304,30.3770635 L332.73304,69.5138989 L347.875612,69.5138989 C362.461925,69.5138989 370.496759,61.6865318 370.496759,49.663696 L370.496759,49.663696 Z M358.259089,50.0394096 C358.259089,56.9901116 354.612511,60.0584395 348.555482,60.0584395 L344.908904,60.0584395 L344.908904,39.832523 L347.937418,39.832523 C355.045156,39.832523 358.259089,42.775613 358.259089,50.0394096 L358.259089,50.0394096 Z" id="Fill-10" fill="#EEC680"></path>
        </g>
    </g>
</svg>