<?xml version="1.0" encoding="UTF-8" standalone="no"?>
<svg width="1027px" height="329px" viewBox="0 0 1027 329" version="1.1" xmlns="http://www.w3.org/2000/svg" xmlns:xlink="http://www.w3.org/1999/xlink">
    <!-- Generator: Sketch 46.2 (44496) - http://www.bohemiancoding.com/sketch -->
    <title>Group</title>
    <desc>Created with Sketch.</desc>
    <defs></defs>
    <g id="Page-1" stroke="none" stroke-width="1" fill="none" fill-rule="evenodd">
        <g id="Group" transform="translate(-6.000000, -39.000000)">
            <path d="M74.452,167.882156 L74.452,194.090156 L91.924,194.090156 C90.916,198.122156 88.396,201.482156 84.196,204.170156 C79.996,206.690156 75.796,208.034156 71.596,208.034156 C54.628,208.034156 46.228,197.114156 46.228,175.274156 C46.228,153.266156 53.956,139.826156 69.244,139.826156 C79.828,139.826156 86.716,144.866156 89.572,155.114156 L127.204,155.114156 C124.852,140.666156 118.3,129.410156 107.716,121.514156 C97.468,113.954156 84.868,110.258156 69.916,110.258156 C50.596,110.258156 35.14,116.306156 23.716,128.234156 C12.292,140.162156 6.58,155.954156 6.58,175.442156 C6.58,195.434156 12.46,211.058156 24.388,222.314156 C34.972,232.562156 48.58,237.602156 65.212,237.602156 C81.172,237.602156 93.268,232.730156 101.668,222.818156 L103.18,234.746156 L128.716,234.746156 L128.716,167.882156 L74.452,167.882156 Z M246.82,206.186156 L192.388,206.186156 L192.388,113.450156 L152.74,113.450156 L152.74,234.410156 L246.82,234.410156 L246.82,206.186156 Z M304.78,193.250156 L329.812,193.250156 L317.044,149.906156 L304.78,193.250156 Z M297.22,218.450156 L292.684,234.410156 L253.876,234.410156 L297.22,113.450156 L337.54,113.450156 L380.884,234.410156 L341.404,234.410156 L336.7,218.450156 L297.22,218.450156 Z M394.324,113.450156 L394.324,234.410156 L432.292,234.410156 L432.292,196.106156 L430.78,168.554156 L473.956,234.410156 L511.084,234.410156 L511.084,113.450156 L473.116,113.450156 L473.116,151.922156 L474.628,179.474156 L431.452,113.450156 L394.324,113.450156 Z M637.756,206.186156 L576.604,206.186156 L635.404,141.506156 L635.404,113.450156 L531.076,113.450156 L531.076,141.674156 L586.684,141.674156 L528.724,205.682156 L528.724,234.410156 L637.756,234.410156 L637.756,206.186156 Z" id="GLANZ" fill="#EB0017"></path>
            <path d="M435.321367,338.900374 L374.001367,338.900374 L374.001367,319.916374 L423.897367,319.916374 L423.897367,291.692374 L374.001367,291.692374 L374.001367,274.388374 L432.969367,274.388374 L432.969367,246.164374 L334.353367,246.164374 L334.353367,367.124374 L435.321367,367.124374 L435.321367,338.900374 Z M549.729367,338.900374 L495.297367,338.900374 L495.297367,246.164374 L455.649367,246.164374 L455.649367,367.124374 L549.729367,367.124374 L549.729367,338.900374 Z M668.673367,338.900374 L607.353367,338.900374 L607.353367,319.916374 L657.249367,319.916374 L657.249367,291.692374 L607.353367,291.692374 L607.353367,274.388374 L666.321367,274.388374 L666.321367,246.164374 L567.705367,246.164374 L567.705367,367.124374 L668.673367,367.124374 L668.673367,338.900374 Z M687.825367,246.164374 L687.825367,367.124374 L725.793367,367.124374 L725.793367,328.820374 L724.281367,301.268374 L767.457367,367.124374 L804.585367,367.124374 L804.585367,246.164374 L766.617367,246.164374 L766.617367,284.636374 L768.129367,312.188374 L724.953367,246.164374 L687.825367,246.164374 Z M874.305367,274.388374 L866.745367,274.388374 L866.745367,338.900374 L875.145367,338.900374 C894.129367,338.900374 903.705367,327.980374 903.705367,306.308374 C903.705367,294.044374 901.521367,285.644374 897.153367,281.108374 C892.785367,276.572374 885.225367,274.388374 874.305367,274.388374 Z M879.177367,367.124374 L827.097367,367.124374 L827.097367,246.164374 L880.185367,246.164374 C900.177367,246.164374 915.633367,250.868374 926.385367,260.276374 C937.641367,270.188374 943.353367,284.804374 943.353367,304.124374 C943.353367,346.124374 922.017367,367.124374 879.177367,367.124374 Z" id="ELEND" fill="#EB0017"></path>
            <path d="M738.936824,257.395639 L683.409589,168.650742 C671.269165,173.415592 661.815698,180.513128 655.048904,189.943561 C648.28211,199.373995 644.898764,209.449517 644.898764,220.170431 C644.898764,235.457659 650.172804,248.114104 660.721041,258.140143 C671.269278,268.166183 683.708051,273.179127 698.037731,273.179127 C712.367412,273.179127 726.000307,267.918017 738.936824,257.395639 Z M747.89283,271.094516 C732.966079,283.403713 716.347879,289.558219 698.037731,289.558219 C685.101214,289.558219 673.408768,286.431333 662.960042,280.177467 C652.511317,273.9236 644.152462,265.585237 637.883227,255.162127 C631.613991,244.739016 628.479421,233.075234 628.479421,220.170431 C628.479421,205.875879 632.609093,192.772737 640.868562,180.86061 C649.128031,168.948484 660.422436,160.213056 674.752117,154.654064 L667.587312,143.3376 C663.805869,137.580072 661.915175,131.227034 661.915175,124.278293 C661.915175,114.748592 665.398031,106.410229 672.363848,99.2629533 C679.329665,92.1156775 687.788031,88.5420933 697.739198,88.5420933 C707.690365,88.5420933 716.14873,92.0164113 723.114547,98.9651517 C730.080364,105.913892 733.563221,114.351522 733.563221,124.278293 C733.563221,131.82264 731.573017,138.523111 727.59255,144.379906 C723.612083,150.236701 718.139023,154.554782 711.173206,157.334279 L698.933332,162.396907 L750.878165,245.185771 C756.649842,237.839959 761.1278,230.394992 764.312173,222.850646 L774.462313,236.251721 C770.879893,244.788744 766.003894,252.630777 759.834171,259.778052 L776.253514,285.686798 L756.848835,285.686798 L747.89283,271.094516 Z M690.27586,148.102427 L705.202536,142.146394 C713.16347,138.572756 717.143877,132.616782 717.143877,124.278293 C717.143877,119.116372 715.352694,114.599759 711.770273,110.728318 C708.187853,106.856876 703.510875,104.921185 697.739198,104.921185 C692.763614,104.921185 688.285656,106.707977 684.305189,110.281615 C680.324722,113.855253 678.334519,118.520766 678.334519,124.278293 C678.334519,128.050467 679.329621,131.326252 681.319854,134.105748 L690.27586,148.102427 Z" id="&amp;" fill="#000000"></path>
            <path d="M706.958659,75 L706.958659,40.6421053 L709.737607,40.6421053 L709.737607,75 L706.958659,75 Z M717.548133,50.5452632 L717.548133,75 L714.769186,75 L714.769186,39.9852632 L729.017607,65.1473684 L729.017607,40.6421053 L731.796554,40.6421053 L731.796554,75.6568421 L717.548133,50.5452632 Z M753.60708,72.2210526 C756.234462,72.2210526 758.65128,71.581059 760.857607,70.3010526 C763.063934,69.0210462 764.807074,67.2694848 766.08708,65.0463158 C767.367087,62.8231468 768.00708,60.4147498 768.00708,57.8210526 C768.00708,55.8673587 767.619716,53.9894827 766.844975,52.1873684 C766.070234,50.3852541 765.059718,48.8610589 763.813396,47.6147368 C762.567074,46.3684148 761.042879,45.3578986 759.240765,44.5831579 C757.43865,43.8084172 755.560774,43.4210526 753.60708,43.4210526 L752.192344,43.4210526 L752.192344,72.2210526 L753.60708,72.2210526 Z M746.937607,40.6421053 L753.60708,40.6421053 C756.032356,40.6421053 758.280754,41.0884166 760.352344,41.9810526 C762.423933,42.8736887 764.234441,44.0947291 765.783923,45.6442105 C767.333404,47.193692 768.554444,49.0042002 769.44708,51.0757895 C770.339716,53.1473788 770.786028,55.3957773 770.786028,57.8210526 C770.786028,60.9200155 770.01972,63.7915657 768.48708,66.4357895 C766.954441,69.0800132 764.866041,71.1684134 762.221817,72.7010526 C759.577593,74.2336919 756.706043,75 753.60708,75 L749.413396,75 L749.413396,43.4210526 L745.270238,43.4210526 L746.937607,40.6421053 Z M781.274449,72.2210526 L794.259712,72.2210526 L794.259712,75 L778.495501,75 L778.495501,54.3347368 L774.301817,54.3347368 L775.969186,51.5557895 L778.495501,51.5557895 L778.495501,40.6421053 L794.259712,40.6421053 L794.259712,43.4210526 L781.274449,43.4210526 L781.274449,51.5557895 L789.510238,51.5557895 L789.510238,54.3347368 L781.274449,54.3347368 L781.274449,72.2210526 Z M805.455501,62.4189474 L808.739712,62.4189474 C811.5692,62.4189474 813.859703,61.4757989 815.611291,59.5894737 C817.362879,57.7031485 818.238659,55.4800128 818.238659,52.92 C818.238659,51.0336748 817.783927,49.366323 816.874449,47.9178947 C815.964971,46.4694664 814.786035,45.3578986 813.337607,44.5831579 C811.889178,43.8084172 810.356562,43.4210526 808.739712,43.4210526 L805.455501,43.4210526 L805.455501,62.4189474 Z M808.739712,40.6421053 C810.929197,40.6421053 812.975492,41.1894682 814.878659,42.2842105 C816.781827,43.3789528 818.280759,44.8778852 819.375501,46.7810526 C820.470244,48.68422 821.017607,50.7305154 821.017607,52.92 C821.017607,54.7726408 820.596558,56.5578861 819.754449,58.2757895 C818.912339,59.9936928 817.750246,61.4252574 816.268133,62.5705263 C814.78602,63.7157952 813.169194,64.4905243 811.417607,64.8947368 L820.00708,75 L816.318659,75 L808.032344,65.1978947 L805.455501,65.1978947 L805.455501,75 L802.676554,75 L802.676554,43.4210526 L798.533396,43.4210526 L800.200765,40.6421053 L808.739712,40.6421053 Z M850.912344,49.1305263 L856.975501,67.0168421 L865.918659,40.6421053 L868.849186,40.6421053 L856.975501,75.6568421 L850.912344,57.7705263 L844.849186,75.6568421 L832.975501,40.6421053 L835.906028,40.6421053 L844.849186,67.0168421 L850.912344,49.1305263 Z M878.579712,72.2210526 L891.564975,72.2210526 L891.564975,75 L875.800765,75 L875.800765,54.3347368 L871.60708,54.3347368 L873.274449,51.5557895 L875.800765,51.5557895 L875.800765,40.6421053 L891.564975,40.6421053 L891.564975,43.4210526 L878.579712,43.4210526 L878.579712,51.5557895 L886.815501,51.5557895 L886.815501,54.3347368 L878.579712,54.3347368 L878.579712,72.2210526 Z M896.596554,75 L896.596554,40.6421053 L899.375501,40.6421053 L899.375501,75 L896.596554,75 Z M917.089186,53.88 L929.771291,39.9852632 L929.771291,75 L926.992344,75 L926.992344,47.16 L917.089186,57.9726316 L907.186028,47.16 L907.186028,75 L904.40708,75 L904.40708,39.9852632 L917.089186,53.88 Z M940.411291,62.52 L952.739712,62.52 L952.739712,48.8778947 C952.739712,47.6652571 952.444978,46.5873731 951.855501,45.6442105 C951.266025,44.7010479 950.499717,43.9768446 949.556554,43.4715789 C948.613391,42.9663133 947.619717,42.7136842 946.575501,42.7136842 C944.756545,42.7136842 943.274455,43.3368359 942.129186,44.5831579 C940.983917,45.8294799 940.411291,47.2610445 940.411291,48.8778947 L940.411291,62.52 Z M940.411291,65.2989474 L940.411291,75 L937.632344,75 L937.632344,65.2989474 L934.044975,65.2989474 L935.712344,62.52 L937.632344,62.52 L937.632344,48.8778947 C937.632344,47.2947289 938.03655,45.8126385 938.844975,44.4315789 C939.6534,43.0505194 940.748126,41.9557935 942.129186,41.1473684 C943.510245,40.3389433 944.992336,39.9347368 946.575501,39.9347368 C948.158667,39.9347368 949.640758,40.3389433 951.021817,41.1473684 C952.402877,41.9557935 953.497603,43.0505194 954.306028,44.4315789 C955.114453,45.8126385 955.518659,47.2947289 955.518659,48.8778947 L955.518659,75 L952.739712,75 L952.739712,65.2989474 L940.411291,65.2989474 Z M966.714449,62.4189474 L969.998659,62.4189474 C972.828147,62.4189474 975.118651,61.4757989 976.870238,59.5894737 C978.621826,57.7031485 979.497607,55.4800128 979.497607,52.92 C979.497607,51.0336748 979.042874,49.366323 978.133396,47.9178947 C977.223918,46.4694664 976.044982,45.3578986 974.596554,44.5831579 C973.148126,43.8084172 971.61551,43.4210526 969.998659,43.4210526 L966.714449,43.4210526 L966.714449,62.4189474 Z M969.998659,40.6421053 C972.188144,40.6421053 974.234439,41.1894682 976.137607,42.2842105 C978.040774,43.3789528 979.539707,44.8778852 980.634449,46.7810526 C981.729191,48.68422 982.276554,50.7305154 982.276554,52.92 C982.276554,54.7726408 981.855506,56.5578861 981.013396,58.2757895 C980.171287,59.9936928 979.009193,61.4252574 977.52708,62.5705263 C976.044968,63.7157952 974.428142,64.4905243 972.676554,64.8947368 L981.266028,75 L977.577607,75 L969.291291,65.1978947 L966.714449,65.1978947 L966.714449,75 L963.935501,75 L963.935501,43.4210526 L959.792344,43.4210526 L961.459712,40.6421053 L969.998659,40.6421053 Z M992.764975,72.2210526 L1005.75024,72.2210526 L1005.75024,75 L989.986028,75 L989.986028,54.3347368 L985.792344,54.3347368 L987.459712,51.5557895 L989.986028,51.5557895 L989.986028,40.6421053 L1005.75024,40.6421053 L1005.75024,43.4210526 L992.764975,43.4210526 L992.764975,51.5557895 L1001.00076,51.5557895 L1001.00076,54.3347368 L992.764975,54.3347368 L992.764975,72.2210526 Z M1016.94603,62.4189474 L1020.23024,62.4189474 C1023.05973,62.4189474 1025.35023,61.4757989 1027.10182,59.5894737 C1028.8534,57.7031485 1029.72919,55.4800128 1029.72919,52.92 C1029.72919,51.0336748 1029.27445,49.366323 1028.36498,47.9178947 C1027.4555,46.4694664 1026.27656,45.3578986 1024.82813,44.5831579 C1023.3797,43.8084172 1021.84709,43.4210526 1020.23024,43.4210526 L1016.94603,43.4210526 L1016.94603,62.4189474 Z M1020.23024,40.6421053 C1022.41972,40.6421053 1024.46602,41.1894682 1026.36919,42.2842105 C1028.27235,43.3789528 1029.77129,44.8778852 1030.86603,46.7810526 C1031.96077,48.68422 1032.50813,50.7305154 1032.50813,52.92 C1032.50813,54.7726408 1032.08708,56.5578861 1031.24498,58.2757895 C1030.40287,59.9936928 1029.24077,61.4252574 1027.75866,62.5705263 C1026.27655,63.7157952 1024.65972,64.4905243 1022.90813,64.8947368 L1031.49761,75 L1027.80919,75 L1019.52287,65.1978947 L1016.94603,65.1978947 L1016.94603,75 L1014.16708,75 L1014.16708,43.4210526 L1010.02392,43.4210526 L1011.69129,40.6421053 L1020.23024,40.6421053 Z" id="IN-DER-WEIMARER" fill="#000000"></path>
            <path d="M783.933514,111.43963 L787.217725,111.43963 C790.047213,111.43963 792.337716,110.496481 794.089304,108.610156 C795.840892,106.723831 796.716672,104.500695 796.716672,101.940683 C796.716672,100.054357 796.26194,98.3870056 795.352462,96.9385773 C794.442983,95.490149 793.264048,94.3785812 791.81562,93.6038405 C790.367191,92.8290997 788.834575,92.4417352 787.217725,92.4417352 L783.933514,92.4417352 L783.933514,111.43963 Z M787.217725,89.6627878 C789.40721,89.6627878 791.453505,90.2101508 793.356672,91.3048931 C795.25984,92.3996354 796.758772,93.8985678 797.853514,95.8017352 C798.948257,97.7049026 799.49562,99.7511979 799.49562,101.940683 C799.49562,103.793323 799.074571,105.578569 798.232462,107.296472 C797.390352,109.014375 796.228259,110.44594 794.746146,111.591209 C793.264033,112.736478 791.647207,113.511207 789.89562,113.915419 L798.485093,124.020683 L794.796672,124.020683 L786.510356,114.218577 L783.933514,114.218577 L783.933514,124.020683 L781.154567,124.020683 L781.154567,92.4417352 L777.011409,92.4417352 L778.678778,89.6627878 L787.217725,89.6627878 Z M809.984041,121.241735 L822.969304,121.241735 L822.969304,124.020683 L807.205093,124.020683 L807.205093,103.355419 L803.011409,103.355419 L804.678778,100.576472 L807.205093,100.576472 L807.205093,89.6627878 L822.969304,89.6627878 L822.969304,92.4417352 L809.984041,92.4417352 L809.984041,100.576472 L818.21983,100.576472 L818.21983,103.355419 L809.984041,103.355419 L809.984041,121.241735 Z M834.165093,111.43963 L838.257725,111.43963 C841.087213,111.43963 843.377716,110.496481 845.129304,108.610156 C846.880892,106.723831 847.756672,104.500695 847.756672,101.940683 C847.756672,100.054357 847.30194,98.3870056 846.392462,96.9385773 C845.482983,95.490149 844.304048,94.3785812 842.85562,93.6038405 C841.407191,92.8290997 839.874575,92.4417352 838.257725,92.4417352 L834.165093,92.4417352 L834.165093,111.43963 Z M838.257725,89.6627878 C840.44721,89.6627878 842.493505,90.2101508 844.396672,91.3048931 C846.29984,92.3996354 847.798772,93.8985678 848.893514,95.8017352 C849.988257,97.7049026 850.53562,99.7511979 850.53562,101.940683 C850.53562,105.342805 849.339842,108.239618 846.948251,110.631209 C844.55666,113.0228 841.659847,114.218577 838.257725,114.218577 L834.165093,114.218577 L834.165093,124.020683 L831.386146,124.020683 L831.386146,92.4417352 L827.242988,92.4417352 L828.910356,89.6627878 L838.257725,89.6627878 Z M869.916672,89.6627878 L872.69562,89.6627878 L872.69562,115.077525 C872.69562,116.66069 872.291413,118.142781 871.482988,119.52384 C870.674563,120.9049 869.579837,121.999626 868.198778,122.808051 C866.817718,123.616476 865.335628,124.020683 863.752462,124.020683 C862.169296,124.020683 860.687205,123.616476 859.306146,122.808051 C857.925086,121.999626 856.83036,120.9049 856.021935,119.52384 C855.21351,118.142781 854.809304,116.66069 854.809304,115.077525 L854.809304,89.6627878 L857.588251,89.6627878 L857.588251,115.077525 C857.588251,116.66069 858.169298,118.083834 859.331409,119.346998 C860.49352,120.610163 861.96719,121.241735 863.752462,121.241735 C865.369312,121.241735 866.800877,120.669109 868.047199,119.52384 C869.293521,118.378572 869.916672,116.896481 869.916672,115.077525 L869.916672,89.6627878 Z M894.29983,102.041735 C896.085102,103.052267 897.533509,104.458568 898.645093,106.260683 C899.756678,108.062797 900.312462,110.075408 900.312462,112.298577 C900.312462,114.420693 899.790362,116.382779 898.746146,118.184893 C897.70193,119.987007 896.278787,121.410151 894.476672,122.454367 C892.674558,123.498583 890.712472,124.020683 888.590356,124.020683 L881.162988,124.020683 L881.162988,103.355419 L876.969304,103.355419 L878.636672,100.525946 L881.162988,100.525946 L881.162988,89.6627878 L890.308251,89.6627878 C892.194576,89.6627878 893.802981,90.3280443 895.133514,91.6585773 C896.464047,92.9891103 897.129304,94.6143572 897.129304,96.5343668 C897.129304,98.8585889 896.186155,100.69436 894.29983,102.041735 Z M883.941935,100.576472 L890.308251,100.576472 C891.520889,100.576472 892.497721,100.163845 893.238778,99.3385773 C893.979834,98.51331 894.350356,97.5785825 894.350356,96.5343668 C894.350356,95.3217291 893.954571,94.3364758 893.162988,93.5785773 C892.371405,92.8206788 891.419836,92.4417352 890.308251,92.4417352 L883.941935,92.4417352 L883.941935,100.576472 Z M883.941935,103.355419 L883.941935,121.241735 L888.590356,121.241735 C891.150369,121.241735 893.280874,120.349113 894.981935,118.56384 C896.682997,116.778568 897.533514,114.690168 897.533514,112.298577 C897.533514,110.580674 897.120887,109.048058 896.29562,107.700683 C895.470352,106.353307 894.367205,105.292265 892.986146,104.517525 C891.605086,103.742784 890.139838,103.355419 888.590356,103.355419 L883.941935,103.355419 Z M916.813514,124.020683 L904.586146,124.020683 L904.586146,89.6627878 L907.365093,89.6627878 L907.365093,121.241735 L916.813514,121.241735 L916.813514,124.020683 Z M921.845093,124.020683 L921.845093,89.6627878 L924.624041,89.6627878 L924.624041,124.020683 L921.845093,124.020683 Z M950.421935,124.020683 L947.289304,124.020683 L936.021935,103.304893 L932.434567,108.610156 L932.434567,124.020683 L929.65562,124.020683 L929.65562,89.6627878 L932.434567,89.6627878 L932.434567,103.557525 L941.781935,89.6627878 L945.116672,89.6627878 L937.73983,100.677525 L950.421935,124.020683 Z" id="REPUBLIK" fill="#000000"></path>
        </g>
    </g>
</svg>
