<svg width="938" height="279" viewBox="0 0 938 279" xmlns="http://www.w3.org/2000/svg"><g fill="none" fill-rule="evenodd"><path d="M68.219 79.639v26.208H85.69c-1.008 4.032-3.528 7.392-7.728 10.08-4.2 2.52-8.4 3.864-12.6 3.864-16.968 0-25.368-10.92-25.368-32.76 0-22.008 7.728-35.448 23.016-35.448 10.584 0 17.472 5.04 20.328 15.288h37.632c-2.352-14.448-8.904-25.704-19.488-33.6-10.248-7.56-22.848-11.256-37.8-11.256-19.32 0-34.776 6.048-46.2 17.976C6.059 51.919.347 67.71.347 87.199c0 19.992 5.88 35.616 17.808 46.872 10.584 10.248 24.192 15.288 40.824 15.288 15.96 0 28.056-4.872 36.456-14.784l1.512 11.928h25.536V79.639H68.219zm172.368 38.304h-54.432V25.207h-39.648v120.96h94.08v-28.224zm57.96-12.936h25.032L310.81 61.663l-12.264 43.344zm-7.56 25.2l-4.536 15.96h-38.808l43.344-120.96h40.32l43.344 120.96h-39.48l-4.704-15.96h-39.48zm97.104-105v120.96h37.968v-38.304l-1.512-27.552 43.176 65.856h37.128V25.207h-37.968v38.472l1.512 27.552-43.176-66.024H388.09zm243.432 92.736H570.37l58.8-64.68V25.207H524.843V53.43h55.608l-57.96 64.008v28.728h109.032v-28.224zM429.088 250.657h-61.32v-18.984h49.896v-28.224h-49.896v-17.304h58.968v-28.224H328.12v120.96h100.968v-28.224zm114.408 0h-54.432v-92.736h-39.648v120.96h94.08v-28.224zm118.944 0h-61.32v-18.984h49.896v-28.224H601.12v-17.304h58.968v-28.224h-98.616v120.96H662.44v-28.224zm19.152-92.736v120.96h37.968v-38.304l-1.512-27.552 43.176 65.856h37.128v-120.96h-37.968v38.472l1.512 27.552-43.176-66.024h-37.128zm186.48 28.224h-7.56v64.512h8.4c18.984 0 28.56-10.92 28.56-32.592 0-12.264-2.184-20.664-6.552-25.2-4.368-4.536-11.928-6.72-22.848-6.72zm4.872 92.736h-52.08v-120.96h53.088c19.992 0 35.448 4.704 46.2 14.112 11.256 9.912 16.968 24.528 16.968 43.848 0 42-21.336 63-64.176 63z" fill="#EB0017"/><path d="M732.703 169.152l-55.527-88.745c-12.14 4.765-21.594 11.863-28.36 21.293-6.767 9.43-10.15 19.506-10.15 30.227 0 15.287 5.273 27.944 15.822 37.97 10.548 10.026 22.987 15.039 37.316 15.039 14.33 0 27.963-5.261 40.9-15.784zm8.956 13.7c-14.926 12.308-31.544 18.463-49.855 18.463-12.936 0-24.629-3.127-35.077-9.38-10.449-6.255-18.808-14.593-25.077-25.016-6.27-10.423-9.404-22.087-9.404-34.992 0-14.295 4.13-27.398 12.39-39.31 8.259-11.912 19.553-20.647 33.883-26.206l-7.165-11.317c-3.781-5.757-5.672-12.11-5.672-19.06 0-9.529 3.483-17.867 10.448-25.014C673.096 3.872 681.555.299 691.506.299s18.41 3.474 25.375 10.423c6.966 6.948 10.449 15.386 10.449 25.313 0 7.544-1.99 14.245-5.97 20.102-3.981 5.856-9.454 10.174-16.42 12.954l-12.24 5.063 51.945 82.788c5.771-7.345 10.25-14.79 13.434-22.335l10.15 13.401c-3.582 8.537-8.458 16.38-14.628 23.527l16.42 25.908h-19.406l-8.956-14.592zM684.042 59.858l14.927-5.956c7.961-3.574 11.942-9.53 11.942-17.868 0-5.162-1.792-9.679-5.374-13.55-3.583-3.872-8.26-5.807-14.031-5.807-4.976 0-9.454 1.787-13.434 5.36-3.98 3.574-5.97 8.24-5.97 13.997 0 3.772.994 7.048 2.984 9.827l8.956 13.997z" fill="#000"/></g></svg>
