<?xml version="1.0" encoding="UTF-8" standalone="no"?>
<svg width="373px" height="124px" viewBox="0 0 373 124" version="1.1" xmlns="http://www.w3.org/2000/svg" xmlns:xlink="http://www.w3.org/1999/xlink">
    <!-- Generator: Sketch 46.2 (44496) - http://www.bohemiancoding.com/sketch -->
    <title>Schirn</title>
    <desc>Created with Sketch.</desc>
    <defs></defs>
    <g id="Page-1" stroke="none" stroke-width="1" fill="none" fill-rule="evenodd">
        <g id="Schirn" transform="translate(0.000000, -1.000000)">
            <g>
                <path d="M70.106659,123.349743 L57.1490145,123.349743 L49.7032038,109.663493 L46.1253467,109.663493 L46.1253467,123.349743 L33.9412929,123.349743 L33.9412929,84.4113965 L53.184362,84.4113965 C57.439111,84.4113965 60.6301727,84.8933067 62.5641495,85.6643631 C64.8849217,86.7245656 66.6255008,88.3630604 67.7858869,90.6762295 C68.6561764,92.5074884 69.1396706,94.5315114 69.1396706,96.8446805 C69.1396706,100.025288 68.1726822,102.627603 66.2387054,104.651626 C65.5618136,105.326301 64.691524,106.000975 63.8212344,106.482885 C63.2410414,106.772031 62.4674507,107.157559 61.3070646,107.63947 L69.9851326,122.325834 L83.3544001,84.5077785 L96.118647,84.5077785 L109.753183,123.349743 L97.2790331,123.349743 L95.8285505,118.241495 L83.3544001,118.241495 L81.9039175,123.349743 L70.106659,123.349743 Z M371.710341,72.9419329 L371.710341,82.0018453 L339.703025,82.0018453 L339.703025,43.2562625 L370.93675,43.2562625 L370.93675,52.3161749 L352.273874,52.3161749 L352.273874,57.8099516 L368.035785,57.8099516 L368.035785,66.869864 L352.273874,66.869864 L352.273874,72.9419329 L371.710341,72.9419329 Z M337.285554,72.9419329 L337.285554,82.0018453 L307.502311,82.0018453 L307.502311,43.2562625 L320.073161,43.2562625 L320.073161,72.9419329 L337.285554,72.9419329 Z M304.988142,72.9419329 L304.988142,82.0018453 L275.204899,82.0018453 L275.204899,43.2562625 L287.775748,43.2562625 L287.775748,72.9419329 L304.988142,72.9419329 Z M247.162235,76.8935968 L245.615054,82.0018453 L233.334301,82.0018453 L247.065536,43.2562625 L259.829783,43.2562625 L273.561019,82.0018453 L261.086868,82.0018453 L259.636386,76.8935968 L247.162235,76.8935968 Z M249.579706,68.7975049 L257.509011,68.7975049 L253.44766,54.9184902 L249.579706,68.7975049 Z M207.999205,66.966246 L207.999205,82.0018453 L195.428356,82.0018453 L195.428356,43.2562625 L207.999205,43.2562625 L207.999205,56.3642209 L219.893162,56.3642209 L219.893162,43.2562625 L232.464011,43.2562625 L232.464011,82.0018453 L219.893162,82.0018453 L219.893162,66.966246 L207.999205,66.966246 Z M169.416368,53.3763774 L169.416368,53.4727595 L158.199302,53.4727595 L158.199302,43.2562625 L193.300981,43.2562625 L193.300981,53.3763774 L181.987217,53.3763774 L181.987217,82.0018453 L169.416368,82.0018453 L169.416368,53.3763774 Z M156.942217,54.532962 L156.942217,54.3401979 L145.144959,54.3401979 C144.951561,53.1836134 144.274669,52.3161749 143.307681,51.7378827 C142.340693,51.2559724 141.277005,51.0632083 140.01992,51.0632083 C137.409052,51.0632083 136.055268,51.8342647 136.055268,53.2799954 C136.055268,54.7257261 137.989245,55.9786927 141.7605,56.9425132 C147.272333,58.3882439 150.753492,59.5448284 152.397372,60.4122669 C156.168627,62.5326719 158.102603,65.6168974 158.102603,69.6649433 C158.102603,74.0021354 156.458723,77.279125 153.074264,79.6886762 C149.883202,81.9054633 145.628453,82.9656658 140.116619,82.9656658 C135.184978,82.9656658 131.123627,81.7126992 127.932565,79.1103839 C124.838203,76.7008327 123.291021,73.6166072 123.097623,70.0504715 L135.08828,70.0504715 C135.281677,71.3998202 135.958569,72.4600227 137.118955,73.134697 C138.182642,73.8093713 139.343029,74.0985175 140.696812,74.0985175 C144.177971,74.0985175 145.91855,73.134697 145.91855,71.2070561 C145.91855,69.7613254 143.984573,68.6047408 140.213318,67.6409204 C134.798183,66.2915717 131.220326,65.0386051 129.576446,64.1711667 C125.805191,62.1471437 123.871214,58.8701541 123.871214,54.6293441 C123.871214,50.6776801 125.515094,47.5934546 128.609457,45.3766676 C131.607121,43.3526446 135.571774,42.2924421 140.503415,42.2924421 C145.628453,42.2924421 149.496407,43.4490266 152.397372,45.8585778 C154.911542,47.9789828 156.458723,50.8704442 156.942217,54.532962 Z M83.8378943,43.2562625 L83.8378943,43.2562625 L95.6351528,43.2562625 L109.269689,64.4603128 L108.786195,55.5931645 L108.786195,43.2562625 L120.776851,43.2562625 L120.776851,82.0018453 L108.979593,82.0018453 L95.3450563,60.8941771 L95.8285505,69.7613254 L95.8285505,82.0018453 L83.8378943,82.0018453 L83.8378943,43.2562625 Z M42.7408873,65.1349871 L42.6441885,65.1349871 L42.6441885,43.2562625 L55.2150377,43.2562625 L55.2150377,66.4843358 C55.2150377,68.7975049 55.5051342,70.4359997 56.1820261,71.4962022 C57.1490145,72.9419329 58.7928948,73.6166072 61.1136669,73.6166072 C65.0783194,73.6166072 67.0122962,71.2070561 67.0122962,66.4843358 L67.0122962,43.2562625 L79.5831454,43.2562625 L79.5831454,65.1349871 C79.5831454,77.6646532 73.9746126,83.0620478 61.2103658,83.0620478 C55.1183388,83.0620478 50.4767945,81.7126992 47.5758293,79.1103839 C44.3847676,76.2189225 42.7408873,71.5925843 42.7408873,65.1349871 Z M14.4081272,82.0018453 L1.83727796,82.0018453 L1.83727796,43.2562625 L14.4081272,43.2562625 L14.4081272,55.7859286 L25.4317949,43.2562625 L40.2267175,43.2562625 L26.2053857,57.8099516 L41.6772001,82.0018453 L26.592181,82.0018453 L17.4057912,66.5807178 L14.4081272,69.7613254 L14.4081272,82.0018453 Z M316.978798,94.7242755 L305.761732,94.7242755 L305.761732,84.5077785 L340.863411,84.5077785 L340.863411,94.7242755 L329.549647,94.7242755 L329.549647,123.349743 L316.978798,123.349743 L316.978798,94.7242755 Z M268.919474,123.349743 L269.016173,123.349743 L269.016173,84.4113965 L288.162543,84.4113965 C292.417292,84.4113965 295.608354,84.8933067 297.542331,85.6643631 C299.863103,86.7245656 301.603682,88.3630604 302.764068,90.6762295 C303.634358,92.5074884 304.117852,94.5315114 304.117852,96.8446805 C304.117852,100.025288 303.150864,102.627603 301.216887,104.651626 C300.539995,105.326301 299.669705,106.000975 298.799416,106.482885 C298.219223,106.772031 297.445632,107.157559 296.285246,107.63947 L305.568335,123.349743 L292.127196,123.349743 L284.681385,109.663493 L281.103528,109.663493 L281.103528,123.349743 L268.919474,123.349743 Z M286.035169,92.6038704 L286.035169,92.6038704 L281.006829,92.6038704 L281.006829,101.663783 L286.035169,101.663783 C289.999821,101.663783 291.933798,100.218052 291.933798,97.2302087 C291.933798,94.1459832 289.999821,92.6038704 286.035169,92.6038704 Z M227.725768,106.386503 L227.725768,84.5077785 L240.296618,84.5077785 L240.296618,107.735852 C240.296618,109.952639 240.586714,111.687516 241.263606,112.747718 C242.230594,114.193449 243.874475,114.868123 246.195247,114.868123 C250.159899,114.868123 252.093876,112.458572 252.093876,107.735852 L252.093876,84.5077785 L264.664725,84.5077785 L264.664725,106.386503 C264.664725,118.819787 259.056193,124.313564 246.291946,124.313564 C240.10322,124.313564 235.461676,122.964215 232.56071,120.3619 C229.369649,117.470438 227.725768,112.8441 227.725768,106.386503 Z M207.61241,109.663493 L207.709108,109.663493 L207.709108,123.349743 L195.138259,123.349743 L195.138259,84.5077785 L224.921502,84.5077785 L224.921502,93.5676909 L207.709108,93.5676909 L207.709108,100.60358 L221.440344,100.60358 L221.440344,109.663493 L207.61241,109.663493 Z M166.031908,123.349743 L153.557758,123.349743 L153.557758,84.5077785 L166.128607,84.5077785 L166.128607,97.0374446 L177.152275,84.4113965 L191.850499,84.4113965 L177.829167,99.0614676 L193.300981,123.349743 L178.215962,123.349743 L169.029572,107.832234 L166.031908,111.012841 L166.031908,123.349743 Z M111.493763,84.5077785 L123.291021,84.5077785 L136.925558,105.711829 L136.442063,96.8446805 L136.442063,84.5077785 L148.432719,84.5077785 L148.432719,123.349743 L136.635461,123.349743 L123.000925,102.145693 L123.484419,111.012841 L123.484419,123.349743 L111.493763,123.349743 L111.493763,84.5077785 Z M85.7718711,110.145403 L93.701176,110.145403 L89.6398247,96.1700062 L85.7718711,110.145403 Z M51.0569875,92.6038704 L51.0569875,92.6038704 L46.0286479,92.6038704 L46.0286479,101.663783 L51.0569875,101.663783 C55.02164,101.663783 56.9556168,100.218052 56.9556168,97.2302087 C56.9556168,94.1459832 55.02164,92.6038704 51.0569875,92.6038704 Z M14.3114283,109.663493 L14.4081272,109.663493 L14.4081272,123.349743 L1.83727796,123.349743 L1.83727796,84.5077785 L31.5238219,84.5077785 L31.5238219,93.5676909 L14.3114283,93.5676909 L14.3114283,100.60358 L28.0426636,100.60358 L28.0426636,109.663493 L14.3114283,109.663493 Z" id="Kunsthalle" stroke="#FAF8F0"></path>
                <path d="M33.7478952,13.281446 L21.8539379,13.281446 C21.6605402,12.0284794 20.9836483,11.161041 20.0166599,10.6791308 C19.0496715,10.1972205 17.9859843,10.0044564 16.7288993,10.0044564 C14.1180306,10.0044564 12.7642469,10.7755128 12.7642469,12.2212435 C12.7642469,13.5705922 14.6982237,14.8235588 18.4694785,15.7873792 C23.9813123,17.2331099 27.5591694,18.2933125 29.1063509,19.1607509 C32.8776056,21.2811559 34.8115824,24.2689994 34.8115824,28.2206633 C34.8115824,32.5578554 33.1677021,35.834845 29.7832427,38.1480141 C26.6888799,40.3648011 22.4341309,41.4250037 16.922297,41.4250037 C11.9906562,41.4250037 7.92930488,40.075655 4.73824316,37.5697218 C1.74057912,35.1601706 0.19339768,32.1723272 0,28.6061915 L12.087355,28.6061915 C12.2807527,29.8591581 12.9576446,30.9193606 14.1180306,31.5940349 C15.1817179,32.2687092 16.342104,32.5578554 17.6958877,32.5578554 C21.177046,32.5578554 22.9176251,31.5940349 22.9176251,29.762776 C22.9176251,28.3170453 20.9836483,27.0640787 17.2123935,26.1966403 C11.7972585,24.8472916 8.2194014,23.6907071 6.57552112,22.8232687 C2.80426636,20.7028636 0.87028956,17.5222561 0.87028956,13.3778281 C0.87028956,9.52254621 2.51416984,6.53470276 5.60853272,4.31791569 C8.50949792,2.19751066 12.4741504,1.2336902 17.4057912,1.2336902 C22.4341309,1.2336902 26.3987833,2.39027476 29.2030497,4.79982592 C31.7172195,6.8238489 33.264401,9.7153103 33.7478952,13.281446 Z M73.1043231,16.7511997 L73.1043231,16.8475818 L61.2103658,16.8475818 C60.8235704,12.6067717 58.5994971,10.5827487 54.441447,10.5827487 C49.7032038,10.5827487 47.3824316,14.2452665 47.3824316,21.6666841 C47.3824316,24.8472916 47.8659258,27.2568428 48.7362154,28.9917196 C49.9933003,31.1121247 52.0239759,32.1723272 54.9249412,32.1723272 C58.5994971,32.1723272 60.7268716,29.9555401 61.3070646,25.7147301 L73.3944196,25.7147301 C72.8142266,30.6302144 70.8802498,34.4854963 67.5924892,37.2805757 C64.4014275,40.075655 60.1466785,41.4250037 55.1183388,41.4250037 C48.7362154,41.4250037 43.8045745,39.5937448 40.2267175,36.027609 C36.6488604,32.3650913 34.8115824,27.4496069 34.8115824,21.2811559 C34.8115824,15.209087 36.7455592,10.2936026 40.4201151,6.63108481 C43.9979722,3.06494908 48.4461189,1.2336902 53.9579528,1.2336902 C65.4651147,1.2336902 72.1373347,6.8238489 73.1043231,16.7511997 Z M88.286041,25.618348 L88.286041,40.2684191 L75.7151918,40.2684191 L75.7151918,2.19751066 L88.286041,2.19751066 L88.286041,15.0163229 L100.083299,15.0163229 L100.083299,2.19751066 L112.654149,2.19751066 L112.654149,40.3648011 L100.083299,40.3648011 L100.083299,25.618348 L88.286041,25.618348 Z M129.963241,2.19751066 L129.963241,40.2684191 L117.392392,40.2684191 L117.392392,2.19751066 L129.963241,2.19751066 Z M134.411388,40.3648011 L134.411388,2.19751066 L153.461059,2.19751066 C157.715808,2.19751066 160.90687,2.6794209 162.840847,3.45047727 C165.161619,4.41429774 166.902198,6.05279253 168.062584,8.36596165 C168.932874,10.1972205 169.416368,12.2212435 169.416368,14.4380306 C169.416368,17.5222561 168.449379,20.1245713 166.515403,22.0522123 C165.838511,22.7268866 164.968221,23.4015609 164.097932,23.8834712 C163.517739,24.1726173 162.744148,24.5581455 161.583762,25.0400557 L170.86685,40.4611832 L157.52241,40.4611832 L150.173299,26.9676967 L146.595442,26.9676967 L146.595442,40.3648011 L134.411388,40.3648011 Z M151.527082,10.1972205 L146.595442,10.1972205 L146.595442,19.1607509 L151.623781,19.1607509 C155.491735,19.1607509 157.425712,17.6186381 157.425712,14.7271767 C157.425712,11.6429512 155.491735,10.1972205 151.527082,10.1972205 Z M172.800827,2.19751066 L184.501387,2.19751066 L198.135923,23.0160327 L197.652429,14.3416485 L197.652429,2.19751066 L209.643085,2.19751066 L209.643085,40.3648011 L197.942526,40.3648011 L184.307989,19.6426611 L184.791483,28.3170453 L184.791483,40.2684191 L172.800827,40.2684191 L172.800827,2.19751066 Z" fill="#FAF8F0"></path>
            </g>
        </g>
    </g>
</svg>