<svg width="41" height="90" viewBox="0 0 41 90" xmlns="http://www.w3.org/2000/svg"><path d="M35.73 50.535c.747-2.41 2.907-9.308-20.192-17.288C7.81 30.587.915 26.68.915 17.62.915 6.817 9.638 0 20.025 0 25.84 0 32.238 2.16 36.64 4.238v12.8h-.665C32.57 4.322 27.17.998 19.942.998c-5.4 0-9.223 3.324-9.307 7.812 0 9.227 16.7 12.053 25.51 20.032 6.48 5.9 4.818 17.29.082 22.11l-.498-.417zM20.77 58.85C6.73 58.432 1.162 43.137.832 39.813H0l.747 14.71c6.814 3.41 14.376 5.57 20.607 5.072l-.582-.747zM3.205 78.64c-.878 0-1.734-.284-2.44-.66L.42 79.484c.663.376 1.687.65 2.75.65 1.87 0 2.918-.957 2.918-2.316 0-1.358-1.142-1.86-2.235-2.156-.856-.24-1.505-.423-1.505-.89 0-.388.307-.606.934-.606.71 0 1.598.25 2.303.626l.355-1.493c-.685-.375-1.55-.626-2.67-.626-1.766 0-2.736.878-2.736 2.2 0 1.428 1.256 1.907 2.292 2.193.947.26 1.46.422 1.46.9 0 .435-.445.673-1.083.673zm9.825-4.29v-1.517H6.68v1.518h2.27v5.614h1.812V74.35h2.268zm3.385-.113l-.946 2.796h1.858l-.913-2.796zm1.837 5.727l-.525-1.518H15.08l-.513 1.518h-1.8l2.53-7.13h2.27l2.485 7.13h-1.8zm7.573-3.548c0-1.473-.74-2.133-2.223-2.133h-.754v4.233h.844c1.313 0 2.133-.673 2.133-2.1zm1.824-.068c0 2.19-1.45 3.616-4.06 3.616h-2.555v-7.13h2.68c2.51 0 3.934 1.392 3.934 3.514zm6.455 3.616v-1.46h-3.433V77.11h2.76v-1.446h-2.76v-1.37h3.433v-1.46h-5.212v7.13h5.212zm6.25 0v-1.518H37.49v-5.613h-1.813v7.13h4.677zM15.916 71.46c0-.496-.308-.763-.783-.763-.465 0-.78.267-.78.762 0 .496.315.763.78.763.475 0 .783-.267.783-.764zm2.48 0c0-.496-.307-.763-.783-.763-.463 0-.78.267-.78.762 0 .496.317.763.78.763.476 0 .782-.267.782-.764zm20.807 17.95h.922l-.214-6.7h-1.19l-2.046 5.508-2.058-5.51h-1.212l-.226 6.7h.89l.076-5.585 2.046 5.49h.912l2.036-5.48.064 5.576zm-7.2-2.586V82.71h-.9v4.137c0 1.254-.643 1.865-1.683 1.865-1.188 0-1.767-.718-1.767-1.93V82.71h-.9v4.21c0 1.61.932 2.65 2.613 2.65 1.76 0 2.638-1.05 2.638-2.746zm-6.462 2.585v-.848h-3.334v-2.09h2.775v-.848h-2.775v-2.068h3.334v-.847h-4.245v6.7h4.245zm-7.956-.656c-.78 0-1.392-.268-1.96-.642l-.3.825a4.285 4.285 0 0 0 2.24.632c1.405 0 2.358-.848 2.358-2.006 0-1.264-.997-1.737-1.973-1.993-1.06-.29-1.628-.524-1.628-1.2 0-.558.398-.997 1.362-.997.6 0 1.264.215 1.78.557l.32-.793a3.926 3.926 0 0 0-2.11-.59c-1.33 0-2.24.762-2.24 1.888 0 1.296 1.05 1.704 2.004 1.96 1.093.292 1.606.547 1.606 1.234 0 .664-.61 1.124-1.458 1.124zm-3.33-1.93V82.71h-.9v4.137c0 1.254-.643 1.865-1.683 1.865-1.19 0-1.768-.718-1.768-1.93V82.71h-.9v4.21c0 1.61.932 2.65 2.615 2.65 1.76 0 2.637-1.05 2.637-2.746zm-7.46 2.585h.92l-.212-6.7h-1.19l-2.047 5.508-2.058-5.51H.996l-.224 6.7h.89l.074-5.585 2.046 5.49h.91l2.037-5.48.066 5.576zM.74 66.622h39.612v-1.518H.742v1.518z" fill="#FFF" fill-rule="evenodd"/></svg>
