<?xml version="1.0" encoding="UTF-8" standalone="no"?>
<svg width="102px" height="679px" viewBox="0 0 102 679" version="1.1" xmlns="http://www.w3.org/2000/svg" xmlns:xlink="http://www.w3.org/1999/xlink">
    <!-- Generator: Sketch 46.2 (44496) - http://www.bohemiancoding.com/sketch -->
    <title>flat</title>
    <desc>Created with Sketch.</desc>
    <defs></defs>
    <g id="Page-1" stroke="none" stroke-width="1" fill="none" fill-rule="evenodd">
        <g id="pattern-1" transform="translate(-320.000000, -89.000000)" fill="#FBF8F0">
            <path d="M320,205.085955 L320,174.914896 L361.687192,216.602088 L346.601663,231.687617 L320,205.085955 L320,205.085955 Z M422,205.085955 L389.999873,173.085828 L405.085403,158.000299 L422,174.914896 L422,205.085955 L422,205.085955 Z M320,119.772721 L320,89.6016626 L320.601663,89 L335.687192,104.085529 L320,119.772721 L320,119.772721 Z M320,154.601916 L320,140.601663 L371.601663,89 L386.687192,104.085529 L328.085403,162.687319 L320,154.601916 L320,154.601916 Z M422,119.772721 L379.085403,162.687319 L363.999873,147.601789 L422,89.6016626 L422,119.772721 Z M422,154.601916 L414.999873,147.601789 L422,140.601663 L422,154.601916 L422,154.601916 Z M320,339.086535 L320,308.915476 L361.687192,350.602668 L346.601663,365.688197 L320,339.086535 Z M422,339.086535 L389.999873,307.086408 L405.085403,292.000879 L422,308.915476 L422,339.086535 L422,339.086535 Z M320,253.773301 L320,223.602243 L320.601663,223.00058 L335.687192,238.086109 L320,253.773301 L320,253.773301 Z M320,288.602496 L320,274.602243 L371.601663,223.00058 L386.687192,238.086109 L328.085403,296.687899 L320,288.602496 L320,288.602496 Z M422,253.773301 L379.085403,296.687899 L363.999873,281.602369 L422,223.602243 L422,253.773301 Z M422,288.602496 L414.999873,281.602369 L422,274.602243 L422,288.602496 L422,288.602496 Z M320,473.087115 L320,442.916056 L361.687192,484.603248 L346.601663,499.688777 L320,473.087115 L320,473.087115 Z M422,473.087115 L389.999873,441.086988 L405.085403,426.001459 L422,442.916056 L422,473.087115 L422,473.087115 Z M320,387.773881 L320,357.602822 L320.601663,357.00116 L335.687192,372.086689 L320,387.773881 L320,387.773881 Z M320,422.603076 L320,408.602822 L371.601663,357.00116 L386.687192,372.086689 L328.085403,430.688479 L320,422.603076 Z M422,387.773881 L379.085403,430.688479 L363.999873,415.602949 L422,357.602822 L422,387.773881 Z M422,422.603076 L414.999873,415.602949 L422,408.602822 L422,422.603076 L422,422.603076 Z M320,607.087695 L320,576.916636 L361.687192,618.603828 L346.601663,633.689357 L320,607.087695 L320,607.087695 Z M422,607.087695 L389.999873,575.087568 L405.085403,560.002038 L422,576.916636 L422,607.087695 L422,607.087695 Z M320,521.774461 L320,491.603402 L320.601663,491.00174 L335.687192,506.087269 L320,521.774461 L320,521.774461 Z M320,556.603656 L320,542.603402 L371.601663,491.00174 L386.687192,506.087269 L328.085403,564.689059 L320,556.603656 L320,556.603656 Z M422,521.774461 L379.085403,564.689059 L363.999873,549.603529 L422,491.603402 L422,521.774461 L422,521.774461 Z M422,556.603656 L414.999873,549.603529 L422,542.603402 L422,556.603656 L422,556.603656 Z M320,741.088275 L320,710.917216 L361.687192,752.604408 L346.601663,767.689937 L320,741.088275 Z M422,741.088275 L389.999873,709.088148 L405.085403,694.002618 L422,710.917216 L422,741.088275 L422,741.088275 Z M320,655.775041 L320,625.603982 L320.601663,625.00232 L335.687192,640.087849 L320,655.775041 L320,655.775041 Z M320,690.604236 L320,676.603982 L371.601663,625.00232 L386.687192,640.087849 L328.085403,698.689639 L320,690.604236 Z M422,655.775041 L379.085403,698.689639 L363.999873,683.604109 L422,625.603982 L422,655.775041 L422,655.775041 Z M422,690.604236 L414.999873,683.604109 L422,676.603982 L422,690.604236 L422,690.604236 Z M397.601663,231.687617 L338.999873,173.085828 L354.085403,158.000299 L412.687192,216.602088 L397.601663,231.687617 Z M397.601663,365.688197 L338.999873,307.086408 L354.085403,292.000879 L412.687192,350.602668 L397.601663,365.688197 Z M397.601663,499.688777 L338.999873,441.086988 L354.085403,426.001459 L412.687192,484.603248 L397.601663,499.688777 Z M397.601663,633.689357 L338.999873,575.087568 L354.085403,560.002038 L412.687192,618.603828 L397.601663,633.689357 Z M397.601663,767.689937 L338.999873,709.088148 L354.085403,694.002618 L412.687192,752.604408 L397.601663,767.689937 Z" id="flat"></path>
        </g>
    </g>
</svg>