<svg width="105" height="723" viewBox="0 0 105 723" xmlns="http://www.w3.org/2000/svg"><path d="M0 506.984l105-105v35.355l-105 105v-35.355zm0 105l105-105v35.355l-105 105v-35.355zm105 0v35.355L29.68 722.66l-17.678-17.678L105 611.984zm-105-524L87.984 0 105 17.016v1.323l-105 105V87.984zm0 105l105-105v35.355l-105 105v-35.355zm0-158L34.984 0l17.678 17.678L0 70.339V34.984zm0 105l105-105v35.355l-105 105v-35.355zm0 105l105-105v35.355l-105 105v-35.355zm0 52l105-105v35.355l-105 105v-35.355zm0 105l105-105v35.355l-105 105v-35.355zm0 52l105-105v35.355l-105 105v-35.355zm0 105l105-105v35.355l-105 105v-35.355zm0 104l105-105v35.355l-105 105v-35.355zm105 0v35.355L80.68 722.66l-17.678-17.678L105 662.984zm-105-314l105-105v35.355l-105 105v-35.355zM0 17.016l.662.662-.662.661v-1.323z" fill="#FAF8F0" fill-rule="evenodd"/></svg>