<svg width="105" height="760" viewBox="0 0 105 760" xmlns="http://www.w3.org/2000/svg"><path d="M0 38.486l15.641 15.641L0 69.77V38.486zm0 100.927L102.964 36.45 105 38.486v31.283l-105 105v-35.356zm0-52.476l7.8-7.8 17.677 17.678L7.8 114.492l-7.8-7.8V86.938zM0 191.49l7.053-7.053 17.677 17.678-17.677 17.678L0 212.74v-21.25zm105-105v20.65L94.675 96.815 105 86.49zm-105 210l6.752-6.753 17.678 17.678-17.678 17.678L0 318.34v-21.85zm105-105v21.25l-10.625-10.625L105 191.49zM0 400.794l5.756-5.757 17.678 17.678-17.678 17.678L0 424.636v-23.842zm105-105v23.242l-11.62-11.621 11.62-11.62zm-105 210l5.584-5.584 17.677 17.677-17.677 17.678L0 529.981v-24.188zm105-105v23.842l-11.921-11.921L105 400.794zM0 663.397l105-105v35.355l-105 105v-35.355zm0-52.479l4.287-4.287 17.678 17.678-17.678 17.677L0 637.7v-26.78zm105-105v23.938l-11.969-11.969L105 505.92zm0 157.479v35.355L44.642 759.11l-17.678-17.678L105 663.397zm0-52.479V637.7l-13.39-13.39 13.39-13.39zM0 243.967l105-105v35.355l-105 105v-35.355zm0 105l105-105v35.355l-105 105v-35.355zM0 453.27l105-105v35.356l-105 105V453.27zm0 105l105-105v35.356l-105 105V558.27zm16.227-487.56L86.937 0l17.678 17.678-70.71 70.71L16.226 70.71zm-.748 105.3L86.19 105.3l17.679 17.678-70.71 70.71-17.679-17.678zm-.3 105.3l70.71-70.71 17.678 17.677-70.71 70.71-17.678-17.677zm-.996 105.3l70.71-70.71 17.678 17.677-70.71 70.71-17.678-17.677zm-.172 105.172l70.71-70.71 17.678 17.677-70.71 70.71-17.678-17.677zm-.176 105.3l70.71-70.71 17.679 17.677-70.71 70.71-17.679-17.677zm-2.421 107.421l70.71-70.71 17.678 17.678-70.71 70.71-17.678-17.678z" fill="#FAF8F0" fill-rule="evenodd"/></svg>