<svg width="64" height="62" viewBox="0 0 64 62" xmlns="http://www.w3.org/2000/svg"><path d="M32.147 1C18.897 1 6.7 10.14 3.151 23.616c-.191.73 2.545 1.47 2.736.741C9.1 12.157 20.185 3.875 32.147 3.875c12.503 0 22.436 8.704 25.544 17.855l-9.496-3.414c-.478-.169-1.408 2.549-.93 2.717l12.042 4.313c.394.137.828.092 1.186-.124.358-.217.604-.582.673-1l2.125-13.654c.085-.46-2.71-1.079-2.79-.45l-1.239 7.906C54.89 8.762 44.692 1 32.147 1zM4.302 36.934a1.428 1.428 0 0 0-1.173 1.213L1.004 51.802c-.127.527 2.75.99 2.789.45l1.24-7.929C9.4 53.598 19.594 61.37 32.147 61.37c13.25 0 25.449-9.163 28.997-22.639.19-.73-2.554-1.47-2.745-.741-3.212 12.2-14.29 20.505-26.252 20.505-12.512 0-22.442-8.717-25.543-17.877L16.1 44.03c.478.169 1.408-2.549.93-2.717L4.988 37.002a1.397 1.397 0 0 0-.686-.068z" stroke="#000" stroke-width=".32"/></svg>