<svg width="215" height="99" viewBox="0 0 215 99" xmlns="http://www.w3.org/2000/svg" xmlns:xlink="http://www.w3.org/1999/xlink"><defs><path id="a" d="M158.118.617h17.063V58.76h-17.063z"/><path id="b" d="M156.293 29.821h17.063v56.311h-17.063z"/><path id="c" d="M88.118.617h17.063V58.76H88.118z"/><path id="d" d="M86.293 29.821h17.063v56.311H86.293z"/><path id="e" d="M18.057-1.047h17.062v58.141H18.057z"/><path id="f" d="M18.783 28.211h17.063v56.311H18.783z"/></defs><g fill="none" fill-rule="evenodd"><g transform="rotate(-40 179.018 17.077)"><use fill="#FAF8F0" xlink:href="#a"/><path stroke="#000" stroke-width="3.75" d="M156.243-1.258h20.813v61.892h-20.813V-1.258z"/></g><g transform="rotate(-130 171.49 57.912)"><use fill="#FAF8F0" xlink:href="#b"/><path stroke="#000" stroke-width="8" d="M152.293 25.821h25.063v64.311h-25.063z"/></g><g transform="rotate(-40 109.018 17.077)"><use fill="#FAF8F0" xlink:href="#c"/><path stroke="#000" stroke-width="3.75" d="M86.243-1.258h20.813v61.892H86.243V-1.258z"/></g><g transform="rotate(-130 101.49 57.912)"><use fill="#FAF8F0" xlink:href="#d"/><path stroke="#000" stroke-width="8" d="M82.293 25.821h25.063v64.311H82.293z"/></g><g transform="rotate(-40 38.957 15.412)"><use fill="#FAF8F0" xlink:href="#e"/><path stroke="#000" stroke-width="3.75" d="M16.182-2.922h20.812v61.891H16.182V-2.922z"/></g><g transform="rotate(-130 33.98 56.302)"><use fill="#FAF8F0" xlink:href="#f"/><path stroke="#000" stroke-width="8" d="M14.783 24.211h25.063v64.311H14.783z"/></g></g></svg>