<svg width="35" height="35" viewBox="0 0 35 35" xmlns="http://www.w3.org/2000/svg" xmlns:xlink="http://www.w3.org/1999/xlink"><defs><path d="M5.48 29.52c6.638 6.64 17.402 6.64 24.04 0 6.64-6.638 6.64-17.402 0-24.04-6.638-6.64-17.402-6.64-24.04 0-6.64 6.638-6.64 17.402 0 24.04z" id="a"/></defs><g fill="none" fill-rule="evenodd"><use fill="#FFF" xlink:href="#a"/><path stroke="#C3A030" stroke-width="2" d="M6.186 28.814c6.249 6.248 16.38 6.248 22.628 0 6.248-6.249 6.248-16.38 0-22.628-6.249-6.248-16.38-6.248-22.628 0-6.248 6.249-6.248 16.38 0 22.628z"/><path d="M8.661 26.339c4.882 4.881 12.796 4.881 17.678 0 4.881-4.882 4.881-12.796 0-17.678-4.882-4.881-12.796-4.881-17.678 0-4.881 4.882-4.881 12.796 0 17.678z" fill="#71A3CC"/><path d="M16.836 21.698a605.8 605.8 0 0 1-2.56-2.519l-.035-.035a1745.501 1745.501 0 0 1-3.391-3.362l-.318-.316-.705.709.318.316a1954.333 1954.333 0 0 0 3.393 3.365l.035.035a606.642 606.642 0 0 0 2.564 2.522c.366.358.653.636.855.827.108.103.191.182.251.236.045.04.045.04.085.073-.038.06-.038.06.692-.013l7.51-7.358-.7-.715-4.45 4.361-2.724 2.668a105.07 105.07 0 0 1-.82-.794z" fill="#FFF" fill-rule="nonzero"/></g></svg>