<svg width="28" height="54" viewBox="0 0 28 54" xmlns="http://www.w3.org/2000/svg"><path d="M26.693 1.004L20.16.993c-7.342 0-12.086 5.093-12.086 12.975v5.983h-6.57c-.568 0-1.028.481-1.028 1.075v8.668c0 .594.46 1.075 1.028 1.075h6.57v21.872c0 .594.46 1.075 1.028 1.075h8.572c.567 0 1.027-.482 1.027-1.075V30.769h7.682c.568 0 1.028-.48 1.028-1.075l.003-8.668c0-.285-.109-.558-.301-.76a1.005 1.005 0 0 0-.727-.315H18.7v-5.072c0-2.437.555-3.675 3.59-3.675l4.402-.001c.567 0 1.027-.482 1.027-1.076V2.08c0-.593-.46-1.074-1.026-1.075z" fill-rule="evenodd"/></svg>