<svg width="35" height="35" viewBox="0 0 35 35" xmlns="http://www.w3.org/2000/svg" xmlns:xlink="http://www.w3.org/1999/xlink"><defs><path d="M5.48 29.52c6.638 6.64 17.402 6.64 24.04 0 6.64-6.638 6.64-17.402 0-24.04-6.638-6.64-17.402-6.64-24.04 0-6.64 6.638-6.64 17.402 0 24.04z" id="a"/></defs><g fill="none" fill-rule="evenodd"><use fill="#FFF" xlink:href="#a"/><path stroke="#C3A030" stroke-width="2" d="M6.186 28.814c6.249 6.248 16.38 6.248 22.628 0 6.248-6.249 6.248-16.38 0-22.628-6.249-6.248-16.38-6.248-22.628 0-6.248 6.249-6.248 16.38 0 22.628z"/><path d="M8.661 26.339c4.882 4.881 12.796 4.881 17.678 0 4.881-4.882 4.881-12.796 0-17.678-4.882-4.881-12.796-4.881-17.678 0-4.881 4.882-4.881 12.796 0 17.678z" fill="#71A3CC"/><path d="M24.897 18.76l-5.68-.056-.01.872 6.669.063-.764-6.621-.866.1.651 5.643zm-4.994-4.404c-4.594-1.493-9.51.862-11.22 5.283l.964.314c1.538-3.89 5.881-5.954 9.943-4.634a8.042 8.042 0 0 1 4.31 3.33l.6.851 1-.5-.712-.843a9.054 9.054 0 0 0-4.885-3.801z" fill="#FFF" fill-rule="nonzero"/></g></svg>