<svg width="28" height="18" viewBox="0 0 28 18" xmlns="http://www.w3.org/2000/svg"><path d="M.024 8.438C.1 3.862 4.307-.145 8.884.008c2.192-.102 4.253.852 5.932 2.192a31.626 31.626 0 0 1-2.251 2.332c-2.02-1.395-4.89-1.793-6.91-.182-2.887 1.998-3.019 6.714-.24 8.864 2.7 2.451 7.807 1.234 8.553-2.52-1.692-.025-3.388 0-5.08-.054-.005-1.01-.009-2.02-.005-3.028a803 803 0 0 1 8.49.008c.17 2.375-.143 4.903-1.602 6.866-2.21 3.109-6.646 4.016-10.107 2.685-3.473-1.323-5.933-4.992-5.64-8.733zM22.89 5.062h2.524c.004.845.008 1.693.017 2.537.844.008 1.692.008 2.536.017v2.523c-.844.009-1.688.013-2.536.021-.009.848-.013 1.692-.017 2.536h-2.528c-.008-.844-.008-1.688-.017-2.531l-2.536-.026V7.616c.844-.009 1.688-.013 2.536-.017.004-.848.013-1.692.021-2.537z"/></svg>