<svg width="58" height="39" viewBox="0 0 58 39" xmlns="http://www.w3.org/2000/svg"><path d="M.061 18.125C.218 8.307 8.844-.291 18.228.037c4.496-.219 8.722 1.828 12.166 4.703-1.47 1.748-2.992 3.43-4.618 5.005-4.14-2.993-10.027-3.849-14.166-.391-5.922 4.285-6.192 14.403-.496 19.016 5.54 5.26 16.01 2.648 17.54-5.405-3.47-.054-6.948 0-10.418-.118-.008-2.165-.017-4.331-.008-6.496 5.8-.018 11.6-.028 17.41.018.347 5.095-.296 10.518-3.288 14.73-4.53 6.67-13.626 8.617-20.723 5.76C4.505 34.021-.539 26.15.061 18.125zm46.89-7.243h5.174c.01 1.81.018 3.63.035 5.441 1.73.019 3.47.019 5.2.037v5.414c-1.73.018-3.46.027-5.2.045-.017 1.82-.026 3.63-.035 5.441h-5.183c-.017-1.81-.017-3.621-.034-5.432l-5.2-.054V16.36c1.73-.018 3.46-.027 5.2-.037.008-1.82.026-3.63.043-5.441z" fill-rule="evenodd"/></svg>