<svg width="41" height="41" viewBox="0 0 41 41" xmlns="http://www.w3.org/2000/svg"><path d="M29.39 19.749a9.24 9.24 0 0 0-.612-3.292H40.18v13.838c0 5.543-4.497 10.034-10.045 10.034h-20.09C4.497 40.33 0 35.838 0 30.295V16.457h11.403a9.258 9.258 0 0 0-.61 3.292c0 5.13 4.162 9.29 9.298 9.29s9.3-4.16 9.3-9.29zm-9.344 5.45a5.578 5.578 0 0 1-5.58-5.575 5.578 5.578 0 0 1 5.58-5.575 5.578 5.578 0 0 1 5.58 5.575 5.578 5.578 0 0 1-5.58 5.575zM30.136 0c5.548 0 10.045 4.493 10.045 10.035v2.938H26.648a9.274 9.274 0 0 0-6.557-2.704 9.277 9.277 0 0 0-6.559 2.704H0v-2.938c0-3.265 1.567-6.157 3.985-7.99v8.42H6.18V.771A9.947 9.947 0 0 1 8.378.15v10.314h2.197V0h19.561z"/></svg>