<svg width="85" height="85" viewBox="0 0 85 85" xmlns="http://www.w3.org/2000/svg"><g fill="none" fill-rule="evenodd"><path d="M42.5 85C19.028 85 0 65.972 0 42.5S19.028 0 42.5 0 85 19.028 85 42.5 65.972 85 42.5 85z" fill="#FAF8F0"/><path d="M42.5 85C19.028 85 0 65.972 0 42.5S19.028 0 42.5 0 85 19.028 85 42.5 65.972 85 42.5 85z" fill="#000"/><path fill="#FAF8F0" d="M45.924 56.67l8.935-9.58 14.48 13.503-8.934 9.58-14.48-13.502z"/><circle stroke="#FAF8F0" stroke-width="5" cx="34.5" cy="35.5" r="17.5"/><g fill="#FAF8F0"><path d="M35.77 33.18h.002v3.64h-.002V42h-3.64V28h3.64v5.18z"/><path d="M32.18 33.132v-.002h3.64v.002H41v3.64H27v-3.64h5.18z"/></g></g></svg>