<svg width="25" height="17" viewBox="0 0 25 17" xmlns="http://www.w3.org/2000/svg"><path d="M12.531 10.027h.006a.961.961 0 0 0 .525-.155l.041-.026.028-.017.476-.394L24.974.055A.134.134 0 0 0 24.867 0H.132C.102 0 .072.011.05.03l11.893 9.802a.93.93 0 0 0 .588.195zM0 1.329v13.904l8.52-6.882L0 1.33zm16.49 7.069L25 15.237V1.375l-8.51 7.023zm-2.706 2.232c-.34.278-.783.432-1.25.432a1.97 1.97 0 0 1-1.249-.43l-1.95-1.609L0 16.563v.023c0 .072.061.133.134.133h24.734a.135.135 0 0 0 .132-.133v-.022L15.674 9.07l-1.89 1.56z"/></svg>