<svg width="48" height="34" viewBox="0 0 48 34" xmlns="http://www.w3.org/2000/svg"><path d="M24.333 20.288h.01c.352 0 .7-.107.981-.301l.076-.051.052-.034.889-.77L47.555.816a.246.246 0 0 0-.199-.107H1.192a.233.233 0 0 0-.152.058l22.194 19.14c.28.243.68.381 1.1.381zM.946 3.304v27.151l15.9-13.439L.945 3.304zM31.72 17.108l15.883 13.354V3.395L31.72 17.108zm-5.05 4.358a3.573 3.573 0 0 1-2.331.844c-.873 0-1.7-.298-2.332-.84l-3.642-3.142L.946 33.05v.047c0 .14.114.259.25.259h46.161c.133 0 .247-.119.247-.26v-.043L30.198 18.421l-3.527 3.045z" fill-rule="evenodd"/></svg>