<svg width="35" height="35" viewBox="0 0 35 35" xmlns="http://www.w3.org/2000/svg" xmlns:xlink="http://www.w3.org/1999/xlink"><defs><path d="M5.48 29.52c6.638 6.64 17.402 6.64 24.04 0 6.64-6.638 6.64-17.402 0-24.04-6.638-6.64-17.402-6.64-24.04 0-6.64 6.638-6.64 17.402 0 24.04z" id="a"/></defs><g fill="none" fill-rule="evenodd"><use fill="#FFF" xlink:href="#a"/><path stroke="#C3A030" stroke-width="2" d="M6.186 28.814c6.249 6.248 16.38 6.248 22.628 0 6.248-6.249 6.248-16.38 0-22.628-6.249-6.248-16.38-6.248-22.628 0-6.248 6.249-6.248 16.38 0 22.628z"/><path d="M8.661 26.339c4.882 4.881 12.796 4.881 17.678 0 4.881-4.882 4.881-12.796 0-17.678-4.882-4.881-12.796-4.881-17.678 0-4.881 4.882-4.881 12.796 0 17.678z" fill="#71A3CC"/><path d="M16 22.443v.5h-2V13h2v9.443zm5 0v.5h-2V13h2v9.443z" fill="#FFF"/></g></svg>