<svg width="22" height="27" viewBox="0 0 22 27" xmlns="http://www.w3.org/2000/svg"><path d="M18.469 2.767C16.61.983 14.039 0 11.227 0 6.932 0 4.29 1.76 2.83 3.237 1.03 5.057 0 7.474 0 9.867c0 3.006 1.257 5.313 3.362 6.171.142.058.284.087.423.087.444 0 .796-.29.918-.756.071-.268.236-.927.308-1.214.153-.566.029-.838-.305-1.231-.61-.72-.893-1.573-.893-2.682 0-3.293 2.453-6.793 6.998-6.793 3.606 0 5.846 2.05 5.846 5.35 0 2.081-.448 4.01-1.263 5.429-.566.986-1.561 2.162-3.09 2.162-.66 0-1.254-.272-1.628-.745-.354-.447-.47-1.025-.328-1.628.16-.68.38-1.39.592-2.076.387-1.253.752-2.437.752-3.382 0-1.615-.993-2.7-2.47-2.7-1.879 0-3.35 1.907-3.35 4.343 0 1.194.317 2.087.46 2.43-.236 1.003-1.642 6.963-1.909 8.087-.154.656-1.083 5.838.455 6.25 1.728.465 3.272-4.582 3.43-5.152.127-.464.572-2.218.846-3.296.834.804 2.177 1.347 3.483 1.347 2.464 0 4.68-1.109 6.239-3.121 1.512-1.953 2.345-4.674 2.345-7.662 0-2.336-1.003-4.639-2.752-6.318z"/></svg>