<svg width="40" height="54" viewBox="0 0 40 54" xmlns="http://www.w3.org/2000/svg"><path d="M34.485 6.348C31.017 2.864 26.217.946 20.97.946 12.954.946 8.024 4.383 5.3 7.267 1.942 10.821.017 15.54.017 20.215c0 5.868 2.346 10.373 6.275 12.049.264.113.529.17.79.17.828 0 1.485-.568 1.712-1.478.133-.522.44-1.81.574-2.37.286-1.104.055-1.635-.569-2.404-1.136-1.407-1.665-3.07-1.665-5.236 0-6.43 4.576-13.266 13.059-13.266 6.73 0 10.911 4.003 10.911 10.446 0 4.065-.837 7.83-2.357 10.602-1.057 1.926-2.914 4.222-5.766 4.222-1.233 0-2.341-.53-3.04-1.454-.66-.874-.878-2.002-.612-3.179.3-1.328.709-2.714 1.105-4.054.722-2.448 1.404-4.76 1.404-6.603 0-3.155-1.853-5.274-4.611-5.274-3.506 0-6.252 3.725-6.252 8.48 0 2.333.593 4.077.86 4.747-.44 1.957-3.065 13.596-3.563 15.79-.288 1.281-2.022 11.4.848 12.207 3.225.906 6.107-8.949 6.4-10.062.238-.906 1.07-4.33 1.58-6.436 1.557 1.57 4.063 2.63 6.502 2.63 4.598 0 8.732-2.165 11.643-6.095 2.822-3.812 4.377-9.126 4.377-14.96 0-4.562-1.873-9.06-5.137-12.339z" fill-rule="evenodd"/></svg>