<svg width="85" height="85" viewBox="0 0 85 85" xmlns="http://www.w3.org/2000/svg"><g fill="none" fill-rule="evenodd"><path d="M42.5 85C19.028 85 0 65.972 0 42.5S19.028 0 42.5 0 85 19.028 85 42.5 65.972 85 42.5 85z" fill="#FAF8F0"/><path d="M42.5 85C19.028 85 0 65.972 0 42.5S19.028 0 42.5 0 85 19.028 85 42.5 65.972 85 42.5 85z" fill="#000"/><path d="M48.744 35.643h.007v13.1h-.007v18.644h-13.1V17h13.1v18.643zm-15.954 0v13.1H17v-13.1h15.79zm18.84 0h15.757v13.1H51.63v-13.1z" fill="#FAF8F0"/></g></svg>