<svg width="35" height="35" viewBox="0 0 35 35" xmlns="http://www.w3.org/2000/svg" xmlns:xlink="http://www.w3.org/1999/xlink"><defs><path d="M5.48 29.52c6.638 6.64 17.402 6.64 24.04 0 6.64-6.638 6.64-17.402 0-24.04-6.638-6.64-17.402-6.64-24.04 0-6.64 6.638-6.64 17.402 0 24.04z" id="a"/></defs><g fill="none" fill-rule="evenodd"><use fill="#FFF" xlink:href="#a"/><path stroke="#C3A030" stroke-width="2" d="M6.186 28.814c6.249 6.248 16.38 6.248 22.628 0 6.248-6.249 6.248-16.38 0-22.628-6.249-6.248-16.38-6.248-22.628 0-6.248 6.249-6.248 16.38 0 22.628z"/><path d="M8.661 26.339c4.882 4.881 12.796 4.881 17.678 0 4.881-4.882 4.881-12.796 0-17.678-4.882-4.881-12.796-4.881-17.678 0-4.881 4.882-4.881 12.796 0 17.678z" fill="#71A3CC"/><path d="M17.219 11.99c-2.583 0-4.919 1.799-5.594 4.364-.054.203-.277.22-.528.152-.25-.067-.434-.194-.38-.396.785-2.984 3.49-5.07 6.502-5.07a6.797 6.797 0 0 1 5.853 3.382l.195-1.246c.027-.213.23-.23.508-.177.275.052.454.133.42.32l-.466 2.99a.467.467 0 0 1-.619.37l-2.635-.942c-.187-.066-.168-.256-.075-.528.094-.274.196-.436.386-.369l1.752.63c-.828-1.972-2.963-3.48-5.32-3.48zM11.17 22.431c-.016.213-.216.23-.504.184-.287-.046-.471-.126-.424-.32l.465-2.986a.473.473 0 0 1 .389-.401.467.467 0 0 1 .23.022l2.635.943c.187.066.168.256.075.528-.093.274-.195.436-.386.369l-1.752-.63c.826 1.974 2.962 3.486 5.32 3.486 2.58 0 4.916-1.803 5.592-4.37.053-.203.276-.22.528-.152.251.067.435.194.382.396-.786 2.985-3.493 5.075-6.502 5.075a6.792 6.792 0 0 1-5.853-3.386l-.195 1.242z" fill="#FFF" fill-rule="nonzero"/></g></svg>