<svg width="35" height="35" viewBox="0 0 35 35" xmlns="http://www.w3.org/2000/svg" xmlns:xlink="http://www.w3.org/1999/xlink"><defs><path d="M5.48 29.52c6.638 6.64 17.402 6.64 24.04 0 6.64-6.638 6.64-17.402 0-24.04-6.638-6.64-17.402-6.64-24.04 0-6.64 6.638-6.64 17.402 0 24.04z" id="a"/></defs><g fill="none" fill-rule="evenodd"><use fill="#FFF" xlink:href="#a"/><path stroke="#C3A030" stroke-width="2" d="M6.186 28.814c6.249 6.248 16.38 6.248 22.628 0 6.248-6.249 6.248-16.38 0-22.628-6.249-6.248-16.38-6.248-22.628 0-6.248 6.249-6.248 16.38 0 22.628z"/><path d="M8.661 26.339c4.882 4.881 12.796 4.881 17.678 0 4.881-4.882 4.881-12.796 0-17.678-4.882-4.881-12.796-4.881-17.678 0-4.881 4.882-4.881 12.796 0 17.678z" fill="#71A3CC"/><path d="M14.36 22.63l4.23-.104.024 1-7.138.174c-.557-.364-.557-.364-.507-.422-.006-.042-.006-.042-.007-.065l-.003-.084v-.238c.002-.19.007-.46.015-.809.014-.61.036-1.443.065-2.443v-.034l.074-2.44.025-.804.01-.305 1 .032-.01.304-.025.803-.074 2.44v.033a411.814 411.814 0 0 0-.077 3.02l2.398-.059zm-2.908.07c.327.214.462.302.506.348.03.03.02.043 0 .061a4.845 4.845 0 0 1 .001-.208l.003-.213-.51.012zM19.912 12.546l-4.229.103-.024-1 7.137-.174c.557.365.557.365.507.422.006.042.006.042.007.065l.003.085v.237c-.002.19-.007.461-.015.81-.013.61-.036 1.443-.065 2.442v.034l-.074 2.441-.025.804-.01.304-1-.032c.003-.055.003-.055.01-.304l.026-.803.073-2.439v-.034a411.814 411.814 0 0 0 .077-3.02l-2.398.06zm2.401-.48c-.019.019-.029.03 0 .061v-.06z" fill="#FFF" fill-rule="nonzero"/><path fill="#FFF" fill-rule="nonzero" d="M11.535 23.798l11.673-11.464-.7-.714-11.674 11.464z"/></g></svg>