<svg width="22" height="25" viewBox="0 0 22 25" xmlns="http://www.w3.org/2000/svg"><path d="M18.383 7.705a3.602 3.602 0 0 0 3.615-3.616C21.998 2.122 20.377.5 18.383.5c-1.994 0-3.616 1.622-3.616 3.589 0 .292.053.558.107.85L6.42 9.886A3.503 3.503 0 0 0 3.974 8.9C1.98 8.9.358 10.523.358 12.49c0 1.967 1.622 3.615 3.616 3.615.957 0 1.808-.372 2.446-.983l8.56 4.998c-.053.266-.106.532-.106.77a3.506 3.506 0 0 0 3.509 3.51c1.94 0 3.51-1.569 3.51-3.51 0-1.94-1.57-3.508-3.51-3.508-.904 0-1.728.345-2.34.93l-8.587-4.971a4.38 4.38 0 0 0 .107-.851c0-.293-.053-.558-.107-.85l8.481-4.946a3.413 3.413 0 0 0 2.446 1.01z" fill-rule="evenodd"/></svg>