<svg width="100" height="94" viewBox="0 0 100 94" xmlns="http://www.w3.org/2000/svg"><path d="M97.741 70.015C85.14 67.938 79.4 55.194 78.785 53.747c-.011-.028-.06-.13-.073-.16-.632-1.283-.788-2.325-.458-3.093.661-1.565 3.465-2.452 5.26-3.02.505-.163.978-.313 1.355-.463 3.63-1.434 5.451-3.265 5.413-5.448-.035-1.732-1.394-3.322-3.405-4.034a6.153 6.153 0 0 0-2.322-.448c-.555 0-1.38.078-2.168.447-1.537.718-2.903 1.105-3.937 1.15a3.773 3.773 0 0 1-1.06-.18c.032-.545.069-1.105.104-1.677l.018-.292c.428-6.798.96-15.258-1.303-20.327C69.516 1.196 55.31.029 51.116.029L49.16.047c-4.187 0-18.365 1.165-25.051 16.163-2.269 5.082-1.732 13.538-1.302 20.334.042.669.083 1.32.12 1.955-.287.099-.7.185-1.262.185-1.203 0-2.645-.39-4.283-1.156-2.368-1.11-6.698.373-7.283 3.446-.319 1.664.352 4.062 5.348 6.037.388.153.877.31 1.477.5 1.675.532 4.478 1.42 5.141 2.981.328.772.172 1.814-.52 3.225-.247.575-6.181 14.087-19.29 16.245a2.688 2.688 0 0 0-2.253 2.803c.022.382.11.765.274 1.152 1.101 2.576 5.296 4.365 13.193 5.618.173.448.375 1.368.49 1.902.166.761.341 1.548.58 2.363.24.825.953 2.208 3.016 2.208.698 0 1.507-.158 2.385-.328 1.263-.248 2.99-.585 5.132-.585 1.188 0 2.425.107 3.676.313 2.362.392 4.434 1.857 6.837 3.555 3.538 2.502 6.755 4.415 13.188 4.415.17 0 .338-.005.503-.017.238.012.478.017.722.017 5.634 0 10.594-1.488 14.744-4.42 2.293-1.623 4.46-3.156 6.823-3.55a22.758 22.758 0 0 1 3.682-.313c2.053 0 3.691.263 5.153.55.988.195 1.761.288 2.475.288 1.44 0 2.5-.791 2.905-2.173a34.73 34.73 0 0 0 .578-2.346c.09-.415.307-1.409.49-1.887C94.631 78.289 98.606 76.57 99.706 74c.165-.37.262-.761.288-1.178a2.696 2.696 0 0 0-2.253-2.807z" fill="#000" fill-rule="nonzero"/></svg>