<svg width="52" height="44" viewBox="0 0 52 44" xmlns="http://www.w3.org/2000/svg"><path d="M51.139 5.918a19.936 19.936 0 0 1-5.936 1.703c2.135-1.337 3.77-3.459 4.544-5.98a20.29 20.29 0 0 1-6.568 2.626C41.293 2.162 38.609.851 35.634.851c-5.709 0-10.337 4.843-10.337 10.813 0 .846.09 1.673.267 2.464-8.59-.451-16.207-4.757-21.305-11.3a11.116 11.116 0 0 0-1.398 5.436c0 3.752 1.827 7.063 4.598 9a9.993 9.993 0 0 1-4.683-1.357v.135c0 5.239 3.565 9.61 8.291 10.606-.866.243-1.779.378-2.723.378a9.545 9.545 0 0 1-1.946-.2c1.316 4.299 5.132 7.425 9.654 7.511-3.536 2.9-7.995 4.622-12.838 4.622-.834 0-1.656-.052-2.465-.148 4.575 3.074 10.007 4.866 15.844 4.866 19.016 0 29.41-16.48 29.41-30.771l-.034-1.4a21.193 21.193 0 0 0 5.17-5.588z" fill-rule="evenodd"/></svg>