<svg width="27" height="22" viewBox="0 0 27 22" xmlns="http://www.w3.org/2000/svg"><path d="M27 2.595c-.994.44-2.06.739-3.18.872A5.562 5.562 0 0 0 26.254.405a11.166 11.166 0 0 1-3.52 1.345 5.539 5.539 0 0 0-9.438 5.05A15.725 15.725 0 0 1 1.882 1.011a5.497 5.497 0 0 0-.749 2.784 5.54 5.54 0 0 0 2.463 4.61 5.54 5.54 0 0 1-2.508-.696v.07a5.544 5.544 0 0 0 4.442 5.43 5.61 5.61 0 0 1-1.46.195c-.357 0-.703-.036-1.042-.103A5.542 5.542 0 0 0 8.2 17.149a11.113 11.113 0 0 1-6.879 2.367c-.447 0-.887-.027-1.321-.076a15.656 15.656 0 0 0 8.49 2.492c10.189 0 15.758-8.44 15.758-15.759l-.018-.717A11.06 11.06 0 0 0 27 2.595z"/></svg>