<svg width="26" height="26" viewBox="0 0 26 26" xmlns="http://www.w3.org/2000/svg"><path d="M18.95 15.575c-.324-.16-1.914-.94-2.21-1.047-.297-.107-.512-.16-.728.161-.215.322-.835 1.047-1.024 1.262-.188.215-.377.242-.7.08-.323-.16-1.365-.5-2.6-1.597-.962-.853-1.61-1.907-1.8-2.229-.188-.322-.02-.496.143-.657.145-.144.323-.376.485-.563.161-.188.215-.323.323-.537.108-.215.054-.403-.027-.564-.08-.161-.727-1.745-.997-2.39-.262-.627-.529-.542-.727-.552a13.03 13.03 0 0 0-.62-.011c-.216 0-.566.08-.862.402-.297.323-1.132 1.101-1.132 2.685s1.159 3.114 1.32 3.33c.162.214 2.28 3.464 5.524 4.858.771.332 1.374.53 1.843.678.775.245 1.48.21 2.037.128.621-.093 1.913-.779 2.182-1.53.27-.752.27-1.397.189-1.53-.08-.135-.296-.216-.62-.377m-5.9 8.018h-.004A10.773 10.773 0 0 1 7.571 22.1l-.393-.232-4.07 1.063 1.086-3.95-.256-.405a10.641 10.641 0 0 1-1.645-5.697c.003-5.902 4.828-10.704 10.76-10.704a10.709 10.709 0 0 1 7.605 3.14 10.615 10.615 0 0 1 3.147 7.573c-.002 5.902-4.827 10.705-10.756 10.705m9.155-19.816A12.888 12.888 0 0 0 13.049 0C5.917 0 .111 5.777.11 12.878a12.81 12.81 0 0 0 1.727 6.44L0 25.99l6.86-1.79a12.978 12.978 0 0 0 6.184 1.567h.005c7.133 0 12.938-5.778 12.941-12.88a12.771 12.771 0 0 0-3.786-9.11"/></svg>