<svg width="48" height="48" viewBox="0 0 48 48" xmlns="http://www.w3.org/2000/svg"><path d="M41.138 7.39C45.565 11.8 48.002 17.662 48 23.897c-.005 12.866-10.526 23.335-23.45 23.335h-.011a23.521 23.521 0 0 1-11.206-2.84L.9 47.638l3.327-12.092a23.206 23.206 0 0 1-3.13-11.667C1.103 11.013 11.623.545 24.548.545c6.274.003 12.162 2.433 16.59 6.844zM35.24 28.765c-.586-.292-3.467-1.702-4.004-1.897-.537-.195-.928-.292-1.319.292-.39.583-1.513 1.897-1.855 2.286-.342.389-.684.438-1.27.146-.586-.292-2.474-.908-4.712-2.894-1.742-1.546-2.918-3.456-3.26-4.04-.341-.583-.036-.899.257-1.19.264-.26.586-.68.88-1.02.292-.341.39-.585.585-.974.196-.389.098-.73-.049-1.021-.146-.292-1.318-3.162-1.806-4.33-.476-1.136-.959-.982-1.319-1-.341-.017-.732-.02-1.123-.02-.39 0-1.025.145-1.562.729-.537.583-2.051 1.994-2.051 4.864s2.1 5.642 2.393 6.032c.293.389 4.131 6.278 10.01 8.804 1.397.6 2.489.96 3.34 1.228 1.404.444 2.681.381 3.69.231 1.126-.167 3.467-1.41 3.956-2.772.488-1.363.488-2.53.341-2.773-.146-.243-.537-.39-1.122-.681z"/></svg>